<?xml version="1.0" encoding="UTF-8"?>
<svg id="Layer_1" data-name="Layer 1" xmlns="http://www.w3.org/2000/svg" viewBox="0 0 468.29 211.85">
  <defs>
    <style>
      .cls-1 {
        fill: #9684e3;
      }

      .cls-2 {
        fill: #af125a;
      }
    </style>
  </defs>
  <g>
    <path class="cls-2" d="M1.54,39.72h22.07v10.18c6.95-7.64,16.64-12.21,28.17-12.21,24.09,0,42.1,19.52,42.1,45.33s-17.99,45.33-42.1,45.33c-11.55,0-21.22-4.57-28.17-12.21v42.43H1.54V39.72ZM71.13,83.01c0-13.58-10.02-23.93-23.76-23.93s-23.76,10.35-23.76,23.93,10.18,23.93,23.76,23.93,23.76-10.35,23.76-23.93Z"/>
    <path class="cls-2" d="M105.24,83.01c0-25.79,18.18-45.33,42.27-45.33,11.55,0,21.22,4.57,28.17,12.21v-10.18h22.07v57.88c0,4.57,2.55,7.31,7.31,7.31h1.7v21.38h-6.27c-11.88,0-19.52-4.24-22.91-12.57-6.95,9.01-17.49,14.59-30.06,14.59-24.09,0-42.27-19.52-42.27-45.33v.05ZM175.69,83.01c0-13.58-10.18-23.93-23.93-23.93s-23.76,10.35-23.76,23.93,10.18,23.93,23.76,23.93,23.93-10.35,23.93-23.93Z"/>
    <path class="cls-2" d="M216.26,108.63c5.61-2.38,10.87-5.26,15.61-8.82-9.01-13.25-14.1-30.88-14.1-50.76,0-30.22,13.58-47.03,33.95-47.03s32.25,15.28,32.25,41.42c0,20.37-7.64,40.41-20.89,56.01,5.42,3.56,11.55,5.42,18.34,5.42h5.26v21.38h-6.46c-13.06,0-24.61-4.08-34.11-11.2-6.46,4.57-13.58,8.49-21.38,11.2l-8.49-17.66.02.02ZM248.51,82.84c8.16-11.55,12.73-25.13,12.73-39.39,0-13.06-3.72-20.04-9.85-20.04-6.62,0-10.87,7.64-10.87,24.09,0,13.41,2.88,25.63,7.97,35.32l.02.02Z"/>
    <path class="cls-2" d="M356.72,108.63c-5.61-2.38-10.87-5.26-15.61-8.82,9.01-13.25,14.1-30.88,14.1-50.76,0-30.22-13.58-47.03-33.95-47.03s-32.25,15.28-32.25,41.42c0,20.37,7.64,40.41,20.89,56.01-5.42,3.56-11.55,5.42-18.34,5.42h-5.26v21.38h6.46c13.06,0,24.61-4.08,34.11-11.2,6.46,4.57,13.58,8.49,21.38,11.2l8.49-17.66-.02.02ZM324.44,82.84c-8.16-11.55-12.73-25.13-12.73-39.39,0-13.06,3.72-20.04,9.85-20.04,6.62,0,10.87,7.64,10.87,24.09,0,13.41-2.88,25.63-7.97,35.32l-.02.02Z"/>
    <path class="cls-2" d="M370.93,13.74c0-7.8,6.11-13.74,13.91-13.74s13.91,5.94,13.91,13.74-6.11,13.74-13.91,13.74-13.91-5.94-13.91-13.74ZM373.83,39.72h22.07v86.57h-22.07V39.72Z"/>
    <path class="cls-2" d="M425.41,98.97v-39.04h-13.74v-20.2h7.8c4.57,0,7.12-2.38,7.12-6.95v-16.13h20.89v23.08h20.04v20.2h-20.04v35.32c0,6.79,4.24,10.87,11.36,10.87h8.65v20.2h-11.88c-19.85,0-30.22-9.5-30.22-27.32l.02-.02Z"/>
  </g>
  <g>
    <path class="cls-1" d="M16.89,189.42c-.62,1.14-1.59,2.07-2.91,2.77-1.32.7-2.98,1.05-4.99,1.05h-4.1v9.38H0v-24.43h9c1.89,0,3.5.33,4.83.98,1.33.65,2.33,1.55,2.99,2.7s1,2.44,1,3.88c0,1.31-.31,2.53-.93,3.67ZM11.79,188.35c.65-.62.98-1.49.98-2.61,0-2.38-1.33-3.57-3.99-3.57h-3.89v7.11h3.89c1.35,0,2.36-.31,3.01-.93Z"/>
    <path class="cls-1" d="M38.32,194.39h-14.17c.12,1.4.61,2.5,1.47,3.29.86.79,1.92,1.19,3.18,1.19,1.82,0,3.12-.78,3.89-2.34h5.29c-.56,1.87-1.63,3.4-3.22,4.6-1.59,1.2-3.54,1.8-5.85,1.8-1.87,0-3.54-.41-5.02-1.24-1.48-.83-2.64-2-3.46-3.52-.83-1.52-1.24-3.27-1.24-5.25s.41-3.77,1.23-5.29c.82-1.52,1.96-2.68,3.43-3.5,1.47-.82,3.16-1.22,5.07-1.22s3.49.4,4.95,1.19c1.46.79,2.59,1.92,3.4,3.38.81,1.46,1.21,3.13,1.21,5.02,0,.7-.05,1.33-.14,1.89ZM33.39,191.1c-.02-1.26-.48-2.27-1.37-3.03-.89-.76-1.97-1.14-3.25-1.14-1.21,0-2.23.37-3.06,1.1-.83.73-1.34,1.76-1.52,3.06h9.21Z"/>
    <path class="cls-1" d="M48.56,183.82c1.01-.58,2.18-.88,3.48-.88v5.14h-1.29c-1.54,0-2.7.36-3.48,1.08-.78.72-1.17,1.98-1.17,3.78v9.66h-4.9v-19.39h4.9v3.01c.63-1.03,1.45-1.83,2.47-2.42Z"/>
    <path class="cls-1" d="M63.38,187.25h-3.4v15.37h-4.97v-15.37h-2.21v-4.02h2.21v-.98c0-2.38.68-4.13,2.03-5.25,1.35-1.12,3.4-1.64,6.12-1.58v4.13c-1.19-.02-2.02.18-2.49.6s-.7,1.18-.7,2.27v.81h3.4v4.02Z"/>
    <path class="cls-1" d="M83.61,194.39h-14.17c.12,1.4.61,2.5,1.47,3.29.86.79,1.92,1.19,3.18,1.19,1.82,0,3.12-.78,3.89-2.34h5.29c-.56,1.87-1.63,3.4-3.22,4.6-1.59,1.2-3.54,1.8-5.85,1.8-1.87,0-3.54-.41-5.02-1.24-1.48-.83-2.64-2-3.46-3.52-.83-1.52-1.24-3.27-1.24-5.25s.41-3.77,1.23-5.29c.82-1.52,1.96-2.68,3.43-3.5,1.47-.82,3.16-1.22,5.07-1.22s3.49.4,4.95,1.19c1.46.79,2.59,1.92,3.4,3.38.81,1.46,1.21,3.13,1.21,5.02,0,.7-.05,1.33-.14,1.89ZM78.68,191.1c-.02-1.26-.48-2.27-1.37-3.03-.89-.76-1.97-1.14-3.25-1.14-1.21,0-2.23.37-3.06,1.1-.83.73-1.34,1.76-1.52,3.06h9.21Z"/>
    <path class="cls-1" d="M86.45,187.65c.82-1.5,1.95-2.67,3.4-3.5,1.45-.83,3.1-1.24,4.97-1.24,2.4,0,4.39.6,5.97,1.8,1.58,1.2,2.63,2.89,3.17,5.06h-5.28c-.28-.84-.75-1.5-1.42-1.98-.67-.48-1.49-.72-2.47-.72-1.4,0-2.51.51-3.33,1.52s-1.22,2.46-1.22,4.32.41,3.27,1.22,4.29c.82,1.01,1.93,1.52,3.33,1.52,1.98,0,3.28-.89,3.89-2.66h5.28c-.54,2.1-1.6,3.77-3.19,5-1.59,1.24-3.57,1.86-5.95,1.86-1.87,0-3.52-.41-4.97-1.24-1.45-.83-2.58-2-3.4-3.5-.82-1.5-1.23-3.26-1.23-5.27s.41-3.76,1.23-5.27Z"/>
    <path class="cls-1" d="M112.42,187.25v9.38c0,.65.16,1.13.47,1.42.32.29.85.44,1.59.44h2.27v4.13h-3.08c-4.13,0-6.19-2.01-6.19-6.02v-9.35h-2.31v-4.02h2.31v-4.79h4.94v4.79h4.34v4.02h-4.34Z"/>
    <path class="cls-1" d="M135.83,187.25h-3.4v15.37h-4.97v-15.37h-2.21v-4.02h2.21v-.98c0-2.38.68-4.13,2.03-5.25,1.35-1.12,3.4-1.64,6.12-1.58v4.13c-1.19-.02-2.02.18-2.49.6s-.7,1.18-.7,2.27v.81h3.4v4.02Z"/>
    <path class="cls-1" d="M141.75,201.68c-1.49-.83-2.67-2-3.52-3.52-.85-1.52-1.28-3.27-1.28-5.25s.44-3.73,1.31-5.25c.88-1.52,2.07-2.69,3.59-3.52,1.52-.83,3.21-1.24,5.08-1.24s3.56.42,5.08,1.24c1.52.83,2.71,2,3.59,3.52.88,1.52,1.31,3.27,1.31,5.25s-.45,3.73-1.35,5.25c-.9,1.52-2.11,2.69-3.64,3.52-1.53.83-3.24,1.24-5.13,1.24s-3.55-.41-5.04-1.24ZM149.29,198.01c.78-.43,1.41-1.08,1.87-1.94s.7-1.91.7-3.15c0-1.84-.48-3.26-1.45-4.25-.97-.99-2.15-1.49-3.55-1.49s-2.57.5-3.52,1.49c-.95.99-1.42,2.41-1.42,4.25s.46,3.26,1.38,4.25c.92.99,2.08,1.49,3.48,1.49.89,0,1.72-.22,2.5-.65Z"/>
    <path class="cls-1" d="M176.01,185.13c1.42,1.46,2.14,3.49,2.14,6.11v11.38h-4.9v-10.71c0-1.54-.39-2.72-1.16-3.55-.77-.83-1.82-1.24-3.15-1.24s-2.42.41-3.2,1.24c-.78.83-1.17,2.01-1.17,3.55v10.71h-4.9v-19.39h4.9v2.42c.65-.84,1.49-1.5,2.5-1.98,1.02-.48,2.13-.72,3.34-.72,2.31,0,4.18.73,5.6,2.19Z"/>
    <path class="cls-1" d="M187.67,187.25v9.38c0,.65.16,1.13.47,1.42.32.29.85.44,1.59.44h2.27v4.13h-3.08c-4.13,0-6.19-2.01-6.19-6.02v-9.35h-2.31v-4.02h2.31v-4.79h4.94v4.79h4.34v4.02h-4.34Z"/>
    <path class="cls-1" d="M197.85,202.07c-1.26-.57-2.26-1.35-2.99-2.33-.73-.98-1.14-2.06-1.21-3.25h4.93c.09.75.46,1.37,1.1,1.86.64.49,1.44.73,2.4.73s1.66-.19,2.19-.56c.53-.37.79-.85.79-1.44,0-.63-.32-1.1-.96-1.42-.64-.32-1.66-.66-3.06-1.03-1.45-.35-2.63-.71-3.55-1.08-.92-.37-1.71-.94-2.38-1.71-.67-.77-1-1.81-1-3.11,0-1.07.31-2.05.93-2.94.62-.89,1.5-1.59,2.66-2.1,1.15-.51,2.51-.77,4.08-.77,2.31,0,4.15.58,5.53,1.73,1.38,1.16,2.13,2.71,2.27,4.67h-4.69c-.07-.77-.39-1.38-.96-1.84-.57-.46-1.34-.68-2.29-.68-.89,0-1.57.16-2.05.49-.48.33-.72.78-.72,1.37,0,.65.33,1.15.98,1.49.65.34,1.67.68,3.04,1.03,1.4.35,2.56.71,3.46,1.08.91.37,1.7.95,2.36,1.73.67.78,1.01,1.82,1.03,3.1,0,1.12-.31,2.12-.93,3.01-.62.89-1.5,1.58-2.66,2.08-1.15.5-2.5.75-4.04.75s-3.01-.29-4.27-.86Z"/>
    <path class="cls-1" d="M218.29,197.47l-4.1,9.83h-3.15l2.27-9.83h4.97Z"/>
    <path class="cls-1" d="M235.98,183.8c1.11-.59,2.37-.89,3.8-.89,1.66,0,3.16.41,4.5,1.22,1.34.82,2.4,1.98,3.18,3.48.78,1.5,1.17,3.25,1.17,5.23s-.39,3.74-1.17,5.27c-.78,1.53-1.84,2.71-3.18,3.55-1.34.84-2.84,1.26-4.5,1.26-1.42,0-2.68-.29-3.76-.88s-1.97-1.32-2.64-2.21v12h-4.9v-28.63h4.9v2.8c.63-.89,1.5-1.63,2.61-2.22ZM242.91,189.82c-.48-.85-1.11-1.5-1.89-1.94-.78-.44-1.63-.67-2.54-.67s-1.72.23-2.5.68-1.41,1.12-1.89,1.98c-.48.86-.72,1.88-.72,3.04s.24,2.18.72,3.04c.48.86,1.11,1.52,1.89,1.98s1.62.68,2.5.68,1.76-.23,2.54-.7c.78-.47,1.41-1.13,1.89-1.99s.72-1.89.72-3.08-.24-2.18-.72-3.03Z"/>
    <path class="cls-1" d="M269.25,194.39h-14.17c.12,1.4.61,2.5,1.47,3.29s1.92,1.19,3.19,1.19c1.82,0,3.11-.78,3.88-2.34h5.29c-.56,1.87-1.63,3.4-3.22,4.6-1.59,1.2-3.54,1.8-5.85,1.8-1.87,0-3.54-.41-5.02-1.24-1.48-.83-2.64-2-3.46-3.52-.83-1.52-1.24-3.27-1.24-5.25s.41-3.77,1.22-5.29c.82-1.52,1.96-2.68,3.43-3.5,1.47-.82,3.16-1.22,5.08-1.22s3.49.4,4.95,1.19c1.46.79,2.59,1.92,3.39,3.38.8,1.46,1.21,3.13,1.21,5.02,0,.7-.05,1.33-.14,1.89ZM264.31,191.1c-.02-1.26-.48-2.27-1.37-3.03-.89-.76-1.97-1.14-3.25-1.14-1.21,0-2.23.37-3.06,1.1-.83.73-1.34,1.76-1.52,3.06h9.21Z"/>
    <path class="cls-1" d="M279.49,183.82c1.02-.58,2.18-.88,3.48-.88v5.14h-1.29c-1.54,0-2.7.36-3.48,1.08-.78.72-1.17,1.98-1.17,3.78v9.66h-4.9v-19.39h4.9v3.01c.63-1.03,1.45-1.83,2.47-2.42Z"/>
    <path class="cls-1" d="M294.31,187.25h-3.39v15.37h-4.97v-15.37h-2.21v-4.02h2.21v-.98c0-2.38.68-4.13,2.03-5.25s3.4-1.64,6.12-1.58v4.13c-1.19-.02-2.02.18-2.48.6-.47.42-.7,1.18-.7,2.27v.81h3.39v4.02Z"/>
    <path class="cls-1" d="M314.54,194.39h-14.17c.12,1.4.61,2.5,1.47,3.29s1.92,1.19,3.19,1.19c1.82,0,3.11-.78,3.88-2.34h5.29c-.56,1.87-1.63,3.4-3.22,4.6-1.59,1.2-3.54,1.8-5.85,1.8-1.87,0-3.54-.41-5.02-1.24-1.48-.83-2.64-2-3.46-3.52-.83-1.52-1.24-3.27-1.24-5.25s.41-3.77,1.22-5.29c.82-1.52,1.96-2.68,3.43-3.5,1.47-.82,3.16-1.22,5.08-1.22s3.49.4,4.95,1.19c1.46.79,2.59,1.92,3.39,3.38.8,1.46,1.21,3.13,1.21,5.02,0,.7-.05,1.33-.14,1.89ZM309.6,191.1c-.02-1.26-.48-2.27-1.37-3.03-.89-.76-1.97-1.14-3.25-1.14-1.21,0-2.23.37-3.06,1.1-.83.73-1.34,1.76-1.52,3.06h9.21Z"/>
    <path class="cls-1" d="M317.37,187.65c.82-1.5,1.95-2.67,3.4-3.5,1.45-.83,3.1-1.24,4.97-1.24,2.4,0,4.39.6,5.97,1.8,1.57,1.2,2.63,2.89,3.17,5.06h-5.29c-.28-.84-.75-1.5-1.42-1.98s-1.49-.72-2.47-.72c-1.4,0-2.51.51-3.33,1.52s-1.22,2.46-1.22,4.32.41,3.27,1.22,4.29c.82,1.01,1.92,1.52,3.33,1.52,1.98,0,3.28-.89,3.88-2.66h5.29c-.54,2.1-1.6,3.77-3.18,5-1.59,1.24-3.57,1.86-5.95,1.86-1.87,0-3.52-.41-4.97-1.24-1.45-.83-2.58-2-3.4-3.5-.82-1.5-1.22-3.26-1.22-5.27s.41-3.76,1.22-5.27Z"/>
    <path class="cls-1" d="M343.34,187.25v9.38c0,.65.16,1.13.47,1.42.31.29.84.44,1.59.44h2.28v4.13h-3.08c-4.13,0-6.2-2.01-6.2-6.02v-9.35h-2.31v-4.02h2.31v-4.79h4.94v4.79h4.34v4.02h-4.34Z"/>
    <path class="cls-1" d="M357.83,187.65c.82-1.5,1.95-2.67,3.4-3.5,1.45-.83,3.1-1.24,4.97-1.24,2.4,0,4.39.6,5.97,1.8,1.57,1.2,2.63,2.89,3.17,5.06h-5.29c-.28-.84-.75-1.5-1.42-1.98s-1.49-.72-2.47-.72c-1.4,0-2.51.51-3.33,1.52s-1.22,2.46-1.22,4.32.41,3.27,1.22,4.29c.82,1.01,1.92,1.52,3.33,1.52,1.98,0,3.28-.89,3.88-2.66h5.29c-.54,2.1-1.6,3.77-3.18,5-1.59,1.24-3.57,1.86-5.95,1.86-1.87,0-3.52-.41-4.97-1.24-1.45-.83-2.58-2-3.4-3.5-.82-1.5-1.22-3.26-1.22-5.27s.41-3.76,1.22-5.27Z"/>
    <path class="cls-1" d="M381.67,201.68c-1.49-.83-2.67-2-3.52-3.52-.85-1.52-1.28-3.27-1.28-5.25s.44-3.73,1.31-5.25c.88-1.52,2.07-2.69,3.59-3.52,1.52-.83,3.21-1.24,5.08-1.24s3.56.42,5.08,1.24c1.52.83,2.71,2,3.59,3.52.88,1.52,1.31,3.27,1.31,5.25s-.45,3.73-1.35,5.25c-.9,1.52-2.11,2.69-3.64,3.52-1.53.83-3.24,1.24-5.13,1.24s-3.55-.41-5.04-1.24ZM389.21,198.01c.78-.43,1.41-1.08,1.87-1.94.47-.86.7-1.91.7-3.15,0-1.84-.48-3.26-1.45-4.25-.97-.99-2.15-1.49-3.55-1.49s-2.57.5-3.52,1.49c-.94.99-1.42,2.41-1.42,4.25s.46,3.26,1.38,4.25c.92.99,2.08,1.49,3.48,1.49.89,0,1.72-.22,2.5-.65Z"/>
    <path class="cls-1" d="M404.49,176.71v25.9h-4.9v-25.9h4.9Z"/>
    <path class="cls-1" d="M412.05,201.68c-1.49-.83-2.67-2-3.52-3.52-.85-1.52-1.28-3.27-1.28-5.25s.44-3.73,1.31-5.25c.88-1.52,2.07-2.69,3.59-3.52,1.52-.83,3.21-1.24,5.08-1.24s3.56.42,5.08,1.24c1.52.83,2.71,2,3.59,3.52.88,1.52,1.31,3.27,1.31,5.25s-.45,3.73-1.35,5.25c-.9,1.52-2.11,2.69-3.64,3.52-1.53.83-3.24,1.24-5.13,1.24s-3.55-.41-5.04-1.24ZM419.59,198.01c.78-.43,1.41-1.08,1.87-1.94.47-.86.7-1.91.7-3.15,0-1.84-.48-3.26-1.45-4.25-.97-.99-2.15-1.49-3.55-1.49s-2.57.5-3.52,1.49c-.94.99-1.42,2.41-1.42,4.25s.46,3.26,1.38,4.25c.92.99,2.08,1.49,3.48,1.49.89,0,1.72-.22,2.5-.65Z"/>
    <path class="cls-1" d="M437.33,183.82c1.02-.58,2.18-.88,3.48-.88v5.14h-1.29c-1.54,0-2.7.36-3.48,1.08-.78.72-1.17,1.98-1.17,3.78v9.66h-4.9v-19.39h4.9v3.01c.63-1.03,1.45-1.83,2.47-2.42Z"/>
    <path class="cls-1" d="M446.42,202.07c-1.26-.57-2.26-1.35-2.99-2.33-.73-.98-1.14-2.06-1.21-3.25h4.93c.09.75.46,1.37,1.1,1.86.64.49,1.44.73,2.4.73s1.66-.19,2.19-.56c.53-.37.79-.85.79-1.44,0-.63-.32-1.1-.96-1.42-.64-.32-1.66-.66-3.06-1.03-1.45-.35-2.63-.71-3.55-1.08-.92-.37-1.71-.94-2.38-1.71-.67-.77-1-1.81-1-3.11,0-1.07.31-2.05.93-2.94s1.51-1.59,2.66-2.1c1.16-.51,2.51-.77,4.08-.77,2.31,0,4.15.58,5.53,1.73s2.14,2.71,2.28,4.67h-4.69c-.07-.77-.39-1.38-.96-1.84-.57-.46-1.34-.68-2.29-.68-.89,0-1.57.16-2.05.49-.48.33-.72.78-.72,1.37,0,.65.33,1.15.98,1.49.65.34,1.67.68,3.05,1.03,1.4.35,2.55.71,3.46,1.08.91.37,1.7.95,2.36,1.73.67.78,1.01,1.82,1.03,3.1,0,1.12-.31,2.12-.93,3.01s-1.5,1.58-2.66,2.08c-1.16.5-2.5.75-4.04.75s-3.01-.29-4.27-.86Z"/>
    <path class="cls-1" d="M463.13,202.03c-.57-.55-.86-1.23-.86-2.05s.29-1.5.86-2.05c.57-.55,1.3-.82,2.19-.82s1.57.27,2.13.82c.56.55.84,1.23.84,2.05s-.28,1.5-.84,2.05c-.56.55-1.27.82-2.13.82s-1.62-.27-2.19-.82ZM467.83,177.76l-.56,16.9h-4.13l-.59-16.9h5.29Z"/>
  </g>
</svg>